<svg width="500" height="500" xmlns="http://www.w3.org/2000/svg" fill="none">
 <g id="Layer_1">
  <title>Layer 1</title>
  <g>
   <g id="svg_1">
    <title>Layer 1</title>
    <g stroke="null">
     <path d="m28.99999,13.99997l442.00002,0l0,472.00004l-442.00002,0l0,-472.00004z" stroke="null"/>
     <path d="m237.15873,125.12521l-92.86653,21.54783" stroke="null"/>
     <path d="m237.15873,125.12521l-92.86653,21.54783" stroke="#000"/>
     <path d="m194.26147,138.97738l15.26063,70.28696" stroke="null"/>
     <path d="m194.26147,138.97738l15.26063,70.28696" stroke="#000"/>
     <path d="m201.89178,165.96347l-95.93727,96.04174" stroke="null"/>
     <path d="m201.89178,165.96347l-95.93727,96.04174" stroke="#000"/>
     <path d="m178.72168,189.46086l13.02737,69.5687" stroke="null"/>
     <path d="m178.72168,189.46086l13.02737,69.5687" stroke="#000"/>
     <path d="m147.45599,222.70608l13.49263,95.42609" stroke="null"/>
     <path d="m147.45599,222.70608l13.49263,95.42609" stroke="#000"/>
     <path d="m153.69052,270.31652l-40.94316,54.89565" stroke="null"/>
     <path d="m153.69052,270.31652l-40.94316,54.89565" stroke="#000"/>
     <path d="m160.94862,208.03304l-42.33895,-9.95304" stroke="null"/>
     <path d="m160.94862,208.03304l-42.33895,-9.95304" stroke="#000"/>
     <path fill="#000" d="m346.30947,111.06782a266.13053,293.46087 0 0 0 -28.1019,-35.50261a10.04968,11.08174 0 0 0 -8.00253,-3.07826c-2.88463,0.30783 -5.58316,2.05217 -7.16505,4.51478l-27.82274,44.53217a8.46779,9.33739 0 0 0 0.65137,11.59478l45.40969,57.46087l-54.06358,55.30609a8.56084,9.44 0 0 0 -2.60547,9.44l6.51368,26.67826l-28.66021,-29.14087l53.50526,-54.48522c3.72211,-3.89913 3.81516,-10.26087 0,-14.05739l-55.36632,-56.43478l36.66274,-74.69913c2.41937,-4.92522 0.46526,-10.87652 -4.28042,-13.33913a80.02527,88.24348 0 0 0 -33.31284,-8.92696c-34.98779,0 -75.55874,29.75652 -108.68548,79.82957c-33.87116,51.40696 -54.15663,114.61391 -54.15663,168.6887c0,50.58609 14.88842,95.83652 41.96674,127.44c28.66021,33.45044 70.44084,51.20174 120.96842,51.20174c49.13179,0 90.54021,-17.7513 119.66569,-51.30435c27.82274,-32.01391 43.08337,-77.26435 43.08337,-127.33739c0,-53.35652 -21.0299,-116.15305 -56.11074,-168.38087l-0.09305,0zm5.86232,289.0487c-27.26442,31.50087 -66.16042,48.02087 -112.50063,48.02087c-47.45684,0 -86.81811,-16.52 -113.52421,-47.81565c-25.58947,-29.75652 -39.64042,-72.64696 -39.64042,-120.87305c0,-52.33044 19.63411,-113.17739 52.57474,-162.94261c31.26569,-47.30261 68.85895,-75.52 100.5899,-75.52c10.14274,0.30783 20.00632,2.97565 28.93937,7.79826l-39.82653,81.16348l60.29811,61.36l-60.39116,61.56522l60.48421,61.36l-15.16758,-61.36l60.39116,-61.56522l-50.99284,-64.43826l27.72969,-44.42957l0.09305,0a255.89474,282.17392 0 0 1 27.17137,34.2713c33.96421,50.58609 54.43579,111.33044 54.43579,162.73739c0,47.61044 -14.51621,90.50087 -40.664,120.66783l-0.00002,0.00001z" stroke="null"/>
     <path d="m307.22736,348.19652l-37.87242,-70.08174" stroke="null"/>
     <path d="m307.22736,348.19652l-37.87242,-70.08174" stroke="#000"/>
     <path d="m322.488,275.65217l-46.52632,6.36174" stroke="null"/>
     <path d="m322.488,275.65217l-46.52632,6.36174" stroke="#000"/>
     <path d="m292.05979,325.6226l-63.27579,42.27478" stroke="null"/>
     <path d="m292.05979,325.6226l-63.27579,42.27478" stroke="#000"/>
     <path d="m313.8341,275.03652l39.64042,31.09044" stroke="null"/>
     <path d="m313.8341,275.03652l39.64042,31.09044" stroke="#000"/>
     <path d="m261.63157,396.73043l53.13305,14.67304" stroke="null"/>
     <path d="m261.63157,396.73043l53.13305,14.67304" stroke="#000"/>
     <path d="m257.72336,432.43826l8.56084,-90.29565" stroke="null"/>
     <path d="m257.72336,432.43826l8.56084,-90.29565" stroke="#000"/>
     <path d="m313.74105,277.60173l36.29053,-34.88696" stroke="null"/>
     <path d="m313.74105,277.60173l36.29053,-34.88696" stroke="#000"/>
     <path fill="#0070c0" d="m152.57389,318.02956c0,-5.13043 4.09432,-9.33739 9.21221,-9.33739c5.02484,0 9.11916,4.10435 9.11916,9.33739s-4.09432,9.44 -9.11916,9.44c-5.11789,0 -9.30526,-4.20696 -9.30526,-9.44l0.09305,0zm-49.13179,6.05391c0,-5.13043 4.18737,-9.33739 9.30526,-9.33739c5.02484,0 9.11916,4.10435 9.11916,9.33739s-4.09432,9.44 -9.11916,9.44c-5.11789,0 -9.30526,-4.10435 -9.30526,-9.44z" stroke="null"/>
     <path fill="#e97132" d="m223.01473,366.05043c0,-5.13043 4.18737,-9.33739 9.30526,-9.33739c5.02484,0 9.11916,4.10435 9.11916,9.33739c0,5.13043 -4.09432,9.44 -9.21221,9.44c-5.02484,0 -9.21221,-4.20696 -9.21221,-9.44zm81.04884,46.37913c0,-5.13043 4.09432,-9.33739 9.21221,-9.33739c5.02484,0 9.21221,4.10435 9.21221,9.33739s-4.18737,9.44 -9.30526,9.44c-5.02484,0 -9.11916,-4.20696 -9.11916,-9.44zm-56.20379,15.80174c0,-5.13043 4.09432,-9.44 9.21221,-9.44c5.02484,0 9.11916,4.20696 9.11916,9.44c0,5.13043 -4.09432,9.44 -9.11916,9.44c-5.11789,0 -9.30526,-4.20696 -9.30526,-9.44l0.09305,0z" stroke="null"/>
     <path fill="#143c64" d="m182.53683,256.77217c0,-5.13043 4.09432,-9.44 9.11916,-9.44c5.11789,0 9.21221,4.20696 9.21221,9.44c0,5.13043 -4.09432,9.44 -9.21221,9.44c-5.02484,0 -9.21221,-4.20696 -9.21221,-9.44l0.09305,0z" stroke="null"/>
     <path fill="#c00000" d="m137.2202,145.54434c0,-5.13043 4.09432,-9.44 9.21221,-9.44s9.21221,4.20696 9.21221,9.44c0,5.13043 -4.09432,9.44 -9.21221,9.44s-9.21221,-4.20696 -9.21221,-9.44z" stroke="null"/>
     <path fill="#595959" d="m200.8682,206.69912c0,-5.13043 4.09432,-9.44 9.21221,-9.44c5.02484,0 9.21221,4.20696 9.21221,9.44c0,5.13043 -4.18737,9.44 -9.30526,9.44c-5.02484,0 -9.11916,-4.30957 -9.11916,-9.44z" stroke="null"/>
     <path fill="#c00000" d="m110.88631,198.69565c0,-5.23304 4.09432,-9.44 9.11916,-9.44c5.11789,0 9.21221,4.10435 9.21221,9.33739c0,5.13043 -4.09432,9.44 -9.21221,9.44c-5.02484,0 -9.21221,-4.20696 -9.21221,-9.44l0.09305,0.10261z" stroke="null"/>
     <path fill="#0070c0" d="m96.92841,260.6713c0,-5.13043 4.00126,-9.44 9.11916,-9.44c5.02484,0 9.21221,4.30957 9.21221,9.44c0,5.13043 -4.18737,9.44 -9.30526,9.44c-5.02484,0 -9.11916,-4.20696 -9.11916,-9.44l0.09305,0z" stroke="null"/>
     <path fill="#78206e" d="m297.736,347.88869c0,-5.13043 4.09432,-9.33739 9.21221,-9.33739s9.21221,4.10435 9.21221,9.33739s-4.09432,9.44 -9.21221,9.44s-9.21221,-4.20696 -9.21221,-9.44zm44.10695,-41.2487c0,-5.13043 4.09432,-9.44 9.21221,-9.44c5.02484,0 9.11916,4.20696 9.11916,9.44c0,5.13043 -4.09432,9.44 -9.11916,9.44c-5.11789,0 -9.30526,-4.30957 -9.30526,-9.44l0.09305,0zm-3.536,-61.56522c0,-5.13043 4.09432,-9.44 9.21221,-9.44c5.02484,0 9.21221,4.30957 9.21221,9.44c0,5.13043 -4.18737,9.44 -9.30526,9.44c-5.02484,0 -9.11916,-4.20696 -9.11916,-9.44z" stroke="null"/>
    </g>
   </g>
  </g>
 </g>

</svg>