<svg xmlns="http://www.w3.org/2000/svg" 
    fill="none" stroke-linecap="square" 
    stroke-miterlimit="10" 
    viewBox="0 0 1040 720"
>
    <style>.O{fill-rule:evenodd}.P{fill-opacity:0}.Q{fill:#000}.R{stroke:#000}.S{stroke-width:4}.T{stroke-miterlimit:800}.U{stroke-linecap:butt}</style><clipPath id="A"><path d="M0 0h1040v720H0z"/></clipPath><g clip-path="url(#A)"><g class="O P Q"><path d="M0 0h1040v720H0z"/><use href="#C"/></g><use class="R S T U" href="#C"/><use class="O P Q" href="#D"/><use class="R S T U" href="#D"/><use class="O P Q" href="#E"/><use class="R S T U" href="#E"/><use class="O P Q" href="#F"/><use class="R S T U" href="#F"/><use class="O P Q" href="#G"/><use class="R S T U" href="#G"/><use class="O P Q" href="#H"/><use class="R S T U" href="#H"/><use class="O P Q" href="#I"/><use class="R S T U" href="#I"/><g class="O Q"><path d="M718.376 134.946c-15.724-21.231-33.243-41.268-52.389-59.92-3.4-3.293-8.1-5.155-13.014-5.157-.586 0-1.181 0-1.803.075-5.507.502-10.46 3.323-13.438 7.652l-51.649 75.049c-4.184 6.076-3.707 13.955 1.182 19.557l84.522 96.884-100.674 93.158c-4.505 4.166-6.314 10.225-4.762 15.949l12.22 45.042-53.336-49.153 99.403-91.944c7.062-6.522 7.093-17.124.068-23.68l-.068-.063-102.947-94.891 68.207-125.985c4.471-8.264.878-18.328-8.024-22.478l-.093-.043C562.704 5.649 541.559.515 519.995-.007c-64.997 0-140.518 50.351-202.016 134.692C254.912 221.254 217.26 327.456 217.26 418.78c0 85.288 27.696 161.584 77.983 214.915 53.291 56.471 131.031 86.31 224.752 86.31 91.529 0 168.539-29.914 222.65-86.502 51.649-53.959 80.094-130.213 80.094-214.723-.009-89.759-39.023-195.843-104.363-283.835zm10.741 487.44c-50.612 52.946-123.004 80.876-209.122 80.876-88.382 0-161.369-27.838-211.188-80.591-47.383-50.233-73.519-122.544-73.519-203.889 0-88.126 36.507-190.82 97.617-274.71 58.161-79.745 128.01-127.333 187.09-127.333 18.786.541 37.187 5.078 53.787 13.262l-74.124 136.836 112.218 103.447L499.622 374.1l112.254 103.456-28.029-103.447 112.254-103.816-94.767-108.63 51.595-74.957a.086.086 0 0 1 .113-.021.1.1 0 0 1 .023.021c18.446 17.981 35.319 37.298 50.459 57.769 63.346 85.271 101.17 187.781 101.17 274.308 0 80.407-26.875 152.726-75.575 203.604z"/><use class="P" href="#J"/></g><use class="R S T U" href="#J"/><use class="O P Q" href="#K"/><use class="R S T U" href="#K"/><use class="O P Q" href="#L"/><use class="R S T U" href="#L"/><use class="O P Q" href="#M"/><use class="R S T U" href="#M"/><use class="O P Q" href="#N"/><use class="R S T U" href="#N"/><use class="O P Q" href="#O"/><use class="R S T U" href="#O"/><use class="O P Q" href="#P"/><use class="R S T U" href="#P"/><g class="O"><g fill="#0070c0"><use href="#B"/><use href="#Q"/></g><path fill="#e97132" d="M489.083 564.916c0-8.761 7.65-15.863 17.087-15.863s17.087 7.102 17.087 15.863-7.65 15.863-17.087 15.863-17.087-7.102-17.087-15.863m150.628 78.212c0-8.761 7.65-15.863 17.087-15.863s17.087 7.102 17.087 15.863-7.65 15.863-17.087 15.863-17.087-7.102-17.087-15.863m-104.533 26.557c0-8.761 7.65-15.863 17.087-15.863s17.087 7.102 17.087 15.863-7.65 15.863-17.087 15.863-17.087-7.102-17.087-15.863"/><path fill="#143c64" d="M413.661 380.615c0-8.761 7.65-15.863 17.087-15.863s17.087 7.102 17.087 15.863-7.65 15.863-17.087 15.863-17.087-7.102-17.087-15.863"/><path fill="#c00000" d="M329.536 193.077c0-8.761 7.65-15.863 17.087-15.863s17.087 7.102 17.087 15.863-7.65 15.863-17.087 15.863-17.087-7.102-17.087-15.863"/><path fill="#595959" d="M447.867 296.159c0-8.761 7.65-15.863 17.087-15.863s17.087 7.102 17.087 15.863-7.65 15.863-17.087 15.863-17.087-7.102-17.087-15.863"/><path fill="#c00000" d="M280.422 282.558c0-8.761 7.65-15.863 17.087-15.863s17.087 7.102 17.087 15.863-7.65 15.863-17.087 15.863-17.087-7.102-17.087-15.863"/><path fill="#0070c0" d="M254.451 387.222c0-8.761 7.65-15.863 17.087-15.863s17.087 7.102 17.087 15.863-7.65 15.863-17.087 15.863-17.087-7.102-17.087-15.863"/><path fill="#78206e" d="M627.973 534.307c0-8.761 7.65-15.863 17.087-15.863s17.087 7.102 17.087 15.863-7.65 15.863-17.087 15.863-17.087-7.102-17.087-15.863m81.918-69.638c0-8.761 7.65-15.863 17.087-15.863s17.087 7.102 17.087 15.863-7.65 15.863-17.087 15.863-17.087-7.102-17.087-15.863m-6.508-103.744c0-8.761 7.65-15.863 17.087-15.863s17.087 7.102 17.087 15.863-7.65 15.863-17.087 15.863-17.087-7.102-17.087-15.863"/></g></g><defs><path id="B" d="M358.033 483.97c0-8.761 7.65-15.863 17.087-15.863s17.087 7.102 17.087 15.863-7.65 15.863-17.087 15.863-17.087-7.102-17.087-15.863"/><path id="C" d="m515.283 158.686-172.644 36.19"/><path id="D" d="M435.479 182.071 464 300.512"/><path id="E" d="M449.726 227.528 271.344 389.444"/><path id="F" d="m406.634 267.201 24.133 117.266"/><path id="G" d="m348.477 323.094 25.146 160.898"/><path id="H" d="m360.113 403.54-76.196 92.434"/><path id="I" d="m373.628 298.45-78.643-16.763"/><path id="J" d="m645.423 534.849-70.289-118.284"/><path id="K" d="m673.917 412.559-86.322 10.653"/><path id="L" d="m617.324 496.651-117.627 71.284"/><path id="M" d="m657.889 411.398 73.749 52.484"/><path id="N" d="m560.941 616.442 98.642 24.91"/><path id="O" d="m553.603 676.725 15.779-152.124"/><path id="P" d="m657.842 415.698 67.336-58.829"/><path id="Q" d="M266.831 494.184c0-8.761 7.65-15.863 17.087-15.863s17.087 7.102 17.087 15.863-7.65 15.863-17.087 15.863-17.087-7.102-17.087-15.863"/>
</defs>
</svg>